<svg width="85" height="91" viewBox="0 0 85 91" fill="none" xmlns="http://www.w3.org/2000/svg">
<path fill-rule="evenodd" clip-rule="evenodd" d="M68.8681 38.4091L66.7615 58.6072C66.6813 59.3604 66.3192 60.0555 65.7478 60.5527C65.1764 61.05 64.438 61.3127 63.6809 61.2881L59.2473 61.1154L54.3154 70.4417C53.4783 72.0133 52.0533 73.1898 50.3517 73.7143C48.65 74.2387 46.81 74.0684 45.2334 73.2407L39.2841 70.0945L32.9731 82.0286L6.27621 67.9106L20.6934 40.648C19.6194 37.0346 19.3819 33.2242 19.9988 29.5054C20.6158 25.7866 22.071 22.257 24.2543 19.184C26.4376 16.1111 29.2916 13.5753 32.6002 11.7689C35.9088 9.96241 39.5851 8.9327 43.3507 8.7577C47.1162 8.5827 50.8722 9.26697 54.3341 10.7588C57.796 12.2506 60.8729 14.5107 63.3318 17.368C65.7907 20.2252 67.567 23.6046 68.5262 27.2501C69.4854 30.8956 69.6023 34.7117 68.8681 38.4091Z" fill="#F2A626"/>
<path fill-rule="evenodd" clip-rule="evenodd" d="M32.973 82.0286L19.8721 75.1005L42.3626 32.5711C43.2849 30.8386 44.8559 29.5419 46.732 28.9651C48.608 28.3883 50.6362 28.5783 52.3725 29.4935C54.1043 30.4153 55.4013 31.9847 55.9804 33.8592C56.5595 35.7337 56.3737 37.7612 55.4636 39.4992L32.973 82.0286Z" fill="#52035E"/>
<path fill-rule="evenodd" clip-rule="evenodd" d="M52.3637 29.4888C51.0678 28.8035 49.5977 28.518 48.1394 28.6684C46.6812 28.8188 45.3003 29.3984 44.1715 30.3338C43.0427 31.2692 42.2168 32.5184 41.7982 33.9234C41.3796 35.3283 41.3871 36.8258 41.8198 38.2265C42.2525 39.6272 43.091 40.868 44.2291 41.792C45.3672 42.716 46.7538 43.2817 48.2135 43.4175C49.6732 43.5532 51.1403 43.2529 52.4293 42.5546C53.7183 41.8563 54.7712 40.7914 55.4548 39.4945C55.9095 38.6347 56.1902 37.6937 56.2809 36.7253C56.3716 35.7569 56.2705 34.7801 55.9835 33.8509C55.6964 32.9216 55.2289 32.058 54.6078 31.3095C53.9867 30.561 53.2241 29.9423 52.3637 29.4888Z" fill="#52035E"/>
<path fill-rule="evenodd" clip-rule="evenodd" d="M61.1909 45.9102L65.1548 40.9815L50.4185 33.1886L61.1909 45.9102Z" fill="#E6E7E8"/>
</svg>
