<svg width="576" height="408" viewBox="0 0 576 408" fill="none" xmlns="http://www.w3.org/2000/svg">
<path fill-rule="evenodd" clip-rule="evenodd" d="M0 0H576V408H0V0Z" fill="#EF5B72"/>
<path fill-rule="evenodd" clip-rule="evenodd" d="M306 285H0V408H306V285Z" fill="#E14B63"/>
<path fill-rule="evenodd" clip-rule="evenodd" d="M129 31H241V40.4V49.8V59.2V68.6251V87.4251V96.8V106.2V115.625V125H129V31Z" fill="#58595B"/>
<path fill-rule="evenodd" clip-rule="evenodd" d="M160 103H138V154H160V103Z" fill="#EC1C24"/>
<path fill-rule="evenodd" clip-rule="evenodd" d="M128.346 31C136.731 31.0198 144.767 34.3956 150.698 40.3894C156.63 46.3832 159.974 54.5077 160 62.9874V95H86L96.7168 62.9874C102.298 46.3289 110.956 31 128.346 31Z" fill="#EC1C24"/>
<path fill-rule="evenodd" clip-rule="evenodd" d="M160 75.0747H104V100.488C104.02 107.248 106.718 113.726 111.506 118.506C116.294 123.286 122.781 125.98 129.552 126H160V75V75.0747Z" fill="#EC1C24"/>
<path fill-rule="evenodd" clip-rule="evenodd" d="M123.013 46C127.518 46 131.839 47.7911 135.024 50.9792C138.21 54.1674 140 58.4913 140 63C140 67.5087 138.21 71.8326 135.024 75.0208C131.839 78.2089 127.518 80 123.013 80C118.505 80 114.182 78.2097 110.992 75.0223C107.802 71.8349 106.007 67.511 106 63C106.007 58.489 107.802 54.1651 110.992 50.9777C114.182 47.7903 118.505 46 123.013 46Z" fill="white"/>
<path fill-rule="evenodd" clip-rule="evenodd" d="M123.5 53C126.285 53 128.956 54.1061 130.925 56.0753C132.894 58.0444 134 60.7152 134 63.4999C134 66.2847 132.894 68.9555 130.925 70.9246C128.956 72.8937 126.285 74 123.5 74C120.715 74 118.045 72.8937 116.075 70.9246C114.106 68.9555 113 66.2847 113 63.4999C113 60.7152 114.106 58.0444 116.075 56.0753C118.045 54.1061 120.715 53 123.5 53Z" fill="#58595B"/>
<path fill-rule="evenodd" clip-rule="evenodd" d="M146 85.0249V94.2403C145.98 100.01 143.623 105.537 139.445 109.614C135.266 113.691 129.605 115.987 123.699 116H100V111.603H123.699C128.42 111.603 132.948 109.771 136.286 106.511C139.624 103.25 141.499 98.827 141.499 94.2155V85L146 85.0249Z" fill="#EF5B72"/>
<path fill-rule="evenodd" clip-rule="evenodd" d="M143.486 83.0001C143.815 82.9971 144.141 83.0464 144.446 83.145C144.751 83.2436 145.028 83.3895 145.262 83.5745C145.496 83.7594 145.681 83.9797 145.808 84.2225C145.935 84.4652 146 84.7258 146 84.9888C146 85.5222 145.735 86.0337 145.264 86.4109C144.792 86.7881 144.153 87 143.486 87C143.157 87 142.832 86.9478 142.528 86.8465C142.225 86.7451 141.949 86.5967 141.718 86.4097C141.487 86.2226 141.304 86.0006 141.181 85.7567C141.058 85.5128 140.996 85.2519 141 84.9888C140.996 84.7268 141.058 84.4668 141.182 84.2241C141.305 83.9815 141.488 83.7611 141.72 83.5759C141.951 83.3906 142.227 83.2441 142.53 83.1452C142.833 83.0464 143.159 82.9971 143.486 83.0001Z" fill="#EF5B72"/>
<path fill-rule="evenodd" clip-rule="evenodd" d="M83 224.058V199.638C83.0463 182.774 89.7795 166.614 101.728 154.69C113.677 142.766 129.869 136.046 146.767 136H155.233C172.131 136.046 188.323 142.766 200.272 154.69C212.221 166.614 218.954 182.774 219 199.638V235.705H199.815V199.663C199.801 189.028 195.951 178.753 188.97 170.718L185.313 263H116.687L113.03 170.718C106.047 178.762 102.197 189.045 102.185 199.688V224.108C102.189 225.366 101.943 226.612 101.462 227.775C100.981 228.938 100.274 229.995 99.383 230.884C98.4916 231.774 97.4328 232.479 96.2675 232.959C95.1022 233.439 93.8534 233.684 92.5927 233.681C91.3321 233.684 90.0831 233.439 88.9177 232.959C87.7524 232.479 86.6937 231.774 85.8023 230.884C84.9109 229.995 84.2045 228.938 83.7236 227.775C83.2427 226.612 82.9967 225.366 83 224.108V224.058Z" fill="#791256"/>
<path fill-rule="evenodd" clip-rule="evenodd" d="M102.85 285C102.85 310.87 103 344.181 103 370H52.8681C51.0465 370 49.2995 369.274 48.0115 367.982C46.7235 366.691 46 364.938 46 363.112C46.0066 361.287 46.7323 359.538 48.0189 358.248C49.3054 356.958 51.0486 356.23 52.8681 356.223H74.0488L75.678 285H102.85Z" fill="#36B171"/>
<path fill-rule="evenodd" clip-rule="evenodd" d="M87.4999 262H150V273.512C149.993 276.561 148.779 279.483 146.623 281.637C144.467 283.791 141.546 285 138.5 285H76V273.488C76.0132 270.436 77.2333 267.514 79.3933 265.362C81.5532 263.209 84.477 262 87.525 262H87.4999Z" fill="#36B171"/>
<path fill-rule="evenodd" clip-rule="evenodd" d="M174 316C199.683 316 225.342 316 251 316V365.252C250.987 367.038 250.262 368.747 248.983 370.009C247.703 371.272 245.971 371.987 244.161 372C242.349 371.994 240.614 371.281 239.333 370.017C238.051 368.753 237.329 367.04 237.322 365.252V344.419L174 342.843V316.098V316Z" fill="#36B171"/>
<path fill-rule="evenodd" clip-rule="evenodd" d="M162.359 331.5L155 269H173.716C176.707 269.007 179.573 270.22 181.688 272.376C183.803 274.531 184.994 277.452 185 280.5V343H173.716C167.51 343 163.193 337.775 162.457 331.5H162.359Z" fill="#36B171"/>
<path fill-rule="evenodd" clip-rule="evenodd" d="M112 285H185V263H112V285Z" fill="#36B171"/>
<path fill-rule="evenodd" clip-rule="evenodd" d="M102 235H43.6033C41.0563 235 38.6138 233.999 36.8128 232.218C35.0119 230.436 34 228.019 34 225.5C34.0066 222.982 35.0205 220.57 36.82 218.79C38.6196 217.01 41.0584 216.007 43.6033 216H101.9V235H102Z" fill="#EB008B"/>
<path fill-rule="evenodd" clip-rule="evenodd" d="M160 146.122H151.423C150.78 146.122 150.164 146.379 149.71 146.836C149.255 147.294 149 147.914 149 148.561C149 149.208 149.255 149.828 149.71 150.286C150.164 150.743 150.78 151 151.423 151H160V146V146.122Z" fill="white"/>
<path fill-rule="evenodd" clip-rule="evenodd" d="M160 157H151.423C150.78 157 150.164 157.263 149.71 157.732C149.255 158.201 149 158.837 149 159.5C149 160.163 149.255 160.799 149.71 161.268C150.164 161.737 150.78 162 151.423 162H160V157Z" fill="white"/>
<path fill-rule="evenodd" clip-rule="evenodd" d="M160 169.122H151.423C150.78 169.122 150.164 169.379 149.71 169.836C149.255 170.294 149 170.914 149 171.561C149 172.208 149.255 172.828 149.71 173.286C150.164 173.743 150.78 174 151.423 174H160V169V169.122Z" fill="white"/>
<path fill-rule="evenodd" clip-rule="evenodd" d="M160 181.122H151.423C150.78 181.122 150.164 181.379 149.71 181.836C149.255 182.294 149 182.914 149 183.561C149 184.208 149.255 184.828 149.71 185.286C150.164 185.743 150.78 186 151.423 186H160V181V181.122Z" fill="white"/>
<path fill-rule="evenodd" clip-rule="evenodd" d="M160 193H151.423C150.78 193 150.164 193.263 149.71 193.732C149.255 194.201 149 194.837 149 195.5C149 196.163 149.255 196.799 149.71 197.268C150.164 197.737 150.78 198 151.423 198H160V193Z" fill="white"/>
<path fill-rule="evenodd" clip-rule="evenodd" d="M160 204.122H151.423C150.78 204.122 150.164 204.379 149.71 204.836C149.255 205.294 149 205.914 149 206.561C149 207.208 149.255 207.828 149.71 208.286C150.164 208.743 150.78 209 151.423 209H160V204V204.122Z" fill="white"/>
<path fill-rule="evenodd" clip-rule="evenodd" d="M160 216H151.423C150.78 216 150.164 216.263 149.71 216.732C149.255 217.201 149 217.837 149 218.5C149 219.163 149.255 219.799 149.71 220.268C150.164 220.737 150.78 221 151.423 221H160V216Z" fill="white"/>
<path fill-rule="evenodd" clip-rule="evenodd" d="M160 228H151.423C150.78 228 150.164 228.263 149.71 228.732C149.255 229.201 149 229.837 149 230.5C149 231.163 149.255 231.799 149.71 232.268C150.164 232.737 150.78 233 151.423 233H160V228Z" fill="white"/>
<path fill-rule="evenodd" clip-rule="evenodd" d="M160 240.122H151.423C150.78 240.122 150.164 240.379 149.71 240.836C149.255 241.294 149 241.914 149 242.561C149 243.208 149.255 243.828 149.71 244.286C150.164 244.743 150.78 245 151.423 245H160V240V240.122Z" fill="white"/>
<path fill-rule="evenodd" clip-rule="evenodd" d="M160 251H151.423C150.78 251 150.164 251.263 149.71 251.732C149.255 252.201 149 252.837 149 253.5C149 254.163 149.255 254.799 149.71 255.268C150.164 255.737 150.78 256 151.423 256H160V251Z" fill="white"/>
<path fill-rule="evenodd" clip-rule="evenodd" d="M141 151.146H149.577C150.22 151.146 150.836 151.455 151.29 152.004C151.745 152.552 152 153.297 152 154.073C152 154.849 151.745 155.594 151.29 156.143C150.836 156.692 150.22 157 149.577 157H141V151V151.146Z" fill="white"/>
<path fill-rule="evenodd" clip-rule="evenodd" d="M141 163H149.577C150.22 163 150.836 163.263 151.29 163.732C151.745 164.201 152 164.837 152 165.5C152 166.163 151.745 166.799 151.29 167.268C150.836 167.737 150.22 168 149.577 168H141V163Z" fill="white"/>
<path fill-rule="evenodd" clip-rule="evenodd" d="M141 175.122H149.577C150.22 175.122 150.836 175.379 151.29 175.836C151.745 176.294 152 176.914 152 177.561C152 178.208 151.745 178.828 151.29 179.286C150.836 179.743 150.22 180 149.577 180H141V175V175.122Z" fill="white"/>
<path fill-rule="evenodd" clip-rule="evenodd" d="M141 187H149.577C150.22 187 150.836 187.263 151.29 187.732C151.745 188.201 152 188.837 152 189.5C152 190.163 151.745 190.799 151.29 191.268C150.836 191.737 150.22 192 149.577 192H141V187Z" fill="white"/>
<path fill-rule="evenodd" clip-rule="evenodd" d="M141 199H149.577C150.22 199 150.836 199.263 151.29 199.732C151.745 200.201 152 200.837 152 201.5C152 202.163 151.745 202.799 151.29 203.268C150.836 203.737 150.22 204 149.577 204H141V199Z" fill="white"/>
<path fill-rule="evenodd" clip-rule="evenodd" d="M141 210H149.577C150.22 210 150.836 210.263 151.29 210.732C151.745 211.201 152 211.837 152 212.5C152 213.163 151.745 213.799 151.29 214.268C150.836 214.737 150.22 215 149.577 215H141V210Z" fill="white"/>
<path fill-rule="evenodd" clip-rule="evenodd" d="M141 222H149.577C150.22 222 150.836 222.263 151.29 222.732C151.745 223.201 152 223.837 152 224.5C152 225.163 151.745 225.799 151.29 226.268C150.836 226.737 150.22 227 149.577 227H141V222Z" fill="white"/>
<path fill-rule="evenodd" clip-rule="evenodd" d="M141 234H149.577C150.22 234 150.836 234.263 151.29 234.732C151.745 235.201 152 235.837 152 236.5C152 237.163 151.745 237.799 151.29 238.268C150.836 238.737 150.22 239 149.577 239H141V234Z" fill="white"/>
<path fill-rule="evenodd" clip-rule="evenodd" d="M141 246.122H149.577C150.22 246.122 150.836 246.379 151.29 246.836C151.745 247.294 152 247.914 152 248.561C152 249.208 151.745 249.828 151.29 250.286C150.836 250.743 150.22 251 149.577 251H141V246V246.122Z" fill="white"/>
<path fill-rule="evenodd" clip-rule="evenodd" d="M141 257H149.577C150.22 257 150.836 257.263 151.29 257.732C151.745 258.201 152 258.837 152 259.5C152 260.163 151.745 260.799 151.29 261.268C150.836 261.737 150.22 262 149.577 262H141V257Z" fill="white"/>
<path fill-rule="evenodd" clip-rule="evenodd" d="M219 235H160.617C159.354 235.003 158.102 234.76 156.933 234.283C155.765 233.807 154.703 233.108 153.81 232.225C152.916 231.342 152.208 230.293 151.725 229.139C151.243 227.985 150.997 226.748 151 225.5C151 222.98 152.013 220.564 153.817 218.782C155.621 217.001 158.067 216 160.617 216H219V235Z" fill="#EB008B"/>
<path fill-rule="evenodd" clip-rule="evenodd" d="M232 315H251V365.132C250.987 366.949 250.264 368.689 248.987 369.974C247.71 371.259 245.983 371.987 244.177 372C242.369 371.993 240.638 371.268 239.36 369.981C238.081 368.695 237.36 366.951 237.354 365.132V343.926H232V315.1V315Z" fill="#FFF100"/>
<path fill-rule="evenodd" clip-rule="evenodd" d="M103 350.124C103 357.081 103 363.839 103 370H52.8681C51.0465 370 49.2997 369.283 48.0117 368.006C46.7237 366.729 46 364.998 46 363.193C46.0066 361.389 46.7323 359.661 48.0189 358.386C49.3054 357.111 51.0486 356.392 52.8681 356.385H74.0488L74.1992 350L103 350.124Z" fill="#FFF100"/>
<path fill-rule="evenodd" clip-rule="evenodd" d="M96.5122 373C94.2546 373 92.0894 373.896 90.4931 375.49C88.8967 377.084 88 379.246 88 381.5C88 383.754 88.8967 385.916 90.4931 387.51C92.0894 389.104 94.2546 390 96.5122 390C97.6289 390 98.7346 389.78 99.766 389.352C100.797 388.925 101.734 388.298 102.523 387.509C103.311 386.719 103.936 385.782 104.361 384.751C104.786 383.72 105.003 382.615 105 381.5C105.003 380.385 104.786 379.28 104.361 378.249C103.936 377.218 103.311 376.281 102.523 375.491C101.734 374.702 100.797 374.075 99.766 373.647C98.7346 373.22 97.6289 373 96.5122 373Z" fill="#A2238D"/>
<path fill-rule="evenodd" clip-rule="evenodd" d="M74.4999 373C72.2456 373 70.0837 373.896 68.4896 375.49C66.8956 377.084 66 379.246 66 381.5C66 383.754 66.8956 385.916 68.4896 387.51C70.0837 389.104 72.2456 390 74.4999 390C76.7543 390 78.9163 389.104 80.5104 387.51C82.1044 385.916 83 383.754 83 381.5C83 379.246 82.1044 377.084 80.5104 375.49C78.9163 373.896 76.7543 373 74.4999 373Z" fill="#A2238D"/>
<path fill-rule="evenodd" clip-rule="evenodd" d="M52.9999 373C50.613 373 48.3239 373.896 46.6361 375.49C44.9483 377.084 44 379.246 44 381.5C44 383.754 44.9483 385.916 46.6361 387.51C48.3239 389.104 50.613 390 52.9999 390C55.3869 390 57.6761 389.104 59.3639 387.51C61.0517 385.916 62 383.754 62 381.5C62 379.246 61.0517 377.084 59.3639 375.49C57.6761 373.896 55.3869 373 52.9999 373Z" fill="#A2238D"/>
<path fill-rule="evenodd" clip-rule="evenodd" d="M256 321.475C256 322.597 256.233 323.707 256.687 324.743C257.14 325.779 257.804 326.72 258.641 327.512C259.479 328.304 260.473 328.931 261.566 329.358C262.659 329.785 263.831 330.003 265.013 330C267.397 330 269.682 329.102 271.368 327.503C273.053 325.905 274 323.736 274 321.475C273.986 319.223 273.033 317.067 271.35 315.479C269.666 313.891 267.388 313 265.013 313C262.623 313 260.33 313.901 258.64 315.504C256.95 317.107 256 319.282 256 321.549V321.475Z" fill="#A2238D"/>
<path fill-rule="evenodd" clip-rule="evenodd" d="M256 343.013C256 344.195 256.233 345.366 256.687 346.458C257.14 347.55 257.804 348.542 258.641 349.377C259.479 350.212 260.473 350.873 261.566 351.323C262.659 351.774 263.831 352.003 265.013 352C266.193 352 267.362 351.767 268.452 351.316C269.542 350.864 270.533 350.202 271.368 349.368C272.202 348.533 272.864 347.542 273.316 346.452C273.767 345.362 274 344.193 274 343.013C274.003 341.831 273.774 340.659 273.323 339.566C272.873 338.473 272.212 337.479 271.377 336.641C270.542 335.804 269.55 335.14 268.458 334.687C267.366 334.233 266.195 334 265.013 334C262.623 334 260.33 334.95 258.64 336.64C256.95 338.33 256 340.623 256 343.013Z" fill="#A2238D"/>
<path fill-rule="evenodd" clip-rule="evenodd" d="M256 364.488C256 366.745 256.95 368.91 258.64 370.507C260.33 372.103 262.623 373 265.013 373C266.195 373 267.366 372.78 268.458 372.352C269.55 371.924 270.542 371.296 271.377 370.505C272.212 369.715 272.873 368.776 273.323 367.743C273.774 366.711 274.003 365.604 274 364.488C274 362.237 273.053 360.078 271.368 358.486C269.682 356.894 267.397 356 265.013 356C263.831 355.997 262.659 356.214 261.566 356.639C260.473 357.064 259.479 357.689 258.641 358.477C257.804 359.266 257.14 360.203 256.687 361.234C256.233 362.265 256 363.371 256 364.488Z" fill="#A2238D"/>
<path fill-rule="evenodd" clip-rule="evenodd" d="M241 40H185V49H241V40Z" fill="#EF5B72"/>
<path fill-rule="evenodd" clip-rule="evenodd" d="M241 57H185V66H241V57Z" fill="#EF5B72"/>
<path fill-rule="evenodd" clip-rule="evenodd" d="M241 74H185V82H241V74Z" fill="#EF5B72"/>
<path fill-rule="evenodd" clip-rule="evenodd" d="M241 91H185V99H241V91Z" fill="#EF5B72"/>
<path fill-rule="evenodd" clip-rule="evenodd" d="M241 107H185V116H241V107Z" fill="#EF5B72"/>
</svg>
